<svg id="Layer_1" data-name="Layer 1" xmlns="http://www.w3.org/2000/svg" viewBox="0 0 500 500"><path d="M351.12812,428.39377a13.31346,13.31346,0,0,1-23.98153,5.3974,12.47612,12.47612,0,0,1-1.07774-1.8127q-.58656-2.79622-1.38748-5.52755l.00568-.033a137.5197,137.5197,0,0,0-109.30364-98.99358c-10.77664-1.85538-29.33431-2.29129-44.82093-.2769-1.564.20343-3.12932.39131-4.70416.47662A133.72645,133.72645,0,0,1,27.28746,169.67676C40.73788,97.47958,110.94453,49.38122,183.144,62.81941c27.16351,5.05584,56.2603,20.62163,79.422,47.45987C335.4437,194.72534,371.53479,309.86548,351.12812,428.39377Z" fill="#00a59c"/><path d="M288.19762,331.88021a8.70242,8.70242,0,0,0,16.03969.94967,8.15426,8.15426,0,0,0,.50382-1.28312q.08315-1.8657.31141-3.71217l-.00714-.02066a89.89057,89.89057,0,0,1,60.0567-75.39862c6.75582-2.33468,18.68083-4.57525,28.8835-4.911,1.03036-.0339,2.06-.078,3.08485-.18923A87.41108,87.41108,0,0,0,469.78211,130.797c-16.2993-45.15226-66.666-68.76655-111.82105-52.4749-16.98861,6.12938-34.11466,19.24257-46.22194,39.00066A252.02972,252.02972,0,0,0,288.19762,331.88021Z" fill="#0066a1"/></svg>